<svg width="79" height="56" viewBox="0 0 79 56" fill="none" xmlns="http://www.w3.org/2000/svg">
<path d="M71.1 13.11V23H79V0H55.3V7.66667H65.491L47.874 24.7633C47.5086 25.1187 47.0745 25.4006 46.5967 25.593C46.1188 25.7854 45.6066 25.8844 45.0893 25.8844C44.5719 25.8844 44.0597 25.7854 43.5818 25.593C43.104 25.4006 42.6699 25.1187 42.3045 24.7633L37.683 20.2783C35.4611 18.1248 32.4493 16.9151 29.309 16.9151C26.1687 16.9151 23.1569 18.1248 20.935 20.2783L0 40.595L5.5695 46L26.465 25.7217C26.8304 25.3663 27.2645 25.0844 27.7423 24.892C28.2202 24.6996 28.7324 24.6006 29.2498 24.6006C29.7671 24.6006 30.2793 24.6996 30.7572 24.892C31.235 25.0844 31.6691 25.3663 32.0345 25.7217L36.656 30.2067C38.8779 32.3602 41.8897 33.5699 45.03 33.5699C48.1703 33.5699 51.1821 32.3602 53.404 30.2067L71.1 13.11Z" fill="url(#paint0_linear_203_754)"/>
<defs>
<linearGradient id="paint0_linear_203_754" x1="84.0193" y1="-4.6422" x2="4.78642" y2="45.2379" gradientUnits="userSpaceOnUse">
<stop stop-color="#4CAF50"/>
<stop offset="1" stop-color="#4CAF50" stop-opacity="0"/>
</linearGradient>
</defs>
</svg>
