<svg width="32" height="32" viewBox="0 0 32 32" fill="none" xmlns="http://www.w3.org/2000/svg">
<path d="M16.5002 21.2224C19.1084 21.2224 21.2226 19.1081 21.2226 16.5C21.2226 13.8919 19.1084 11.7776 16.5002 11.7776C13.8921 11.7776 11.7778 13.8919 11.7778 16.5C11.7778 19.1081 13.8921 21.2224 16.5002 21.2224Z" fill="url(#paint0_linear_810_150)" fill-opacity="0.5"/>
<g filter="url(#filter0_bi_810_150)">
<path d="M16 32C24.8366 32 32 24.8366 32 16C32 7.16344 24.8366 0 16 0C7.16344 0 0 7.16344 0 16C0 24.8366 7.16344 32 16 32Z" fill="#1D1D1D" fill-opacity="0.05"/>
<path d="M16 32C24.8366 32 32 24.8366 32 16C32 7.16344 24.8366 0 16 0C7.16344 0 0 7.16344 0 16C0 24.8366 7.16344 32 16 32Z" fill="url(#paint1_linear_810_150)" fill-opacity="0.2"/>
<path d="M31.85 16C31.85 24.7537 24.7537 31.85 16 31.85C7.24629 31.85 0.15 24.7537 0.15 16C0.15 7.24629 7.24629 0.15 16 0.15C24.7537 0.15 31.85 7.24629 31.85 16Z" stroke="url(#paint2_linear_810_150)" stroke-opacity="0.1" stroke-width="0.3"/>
</g>
<g filter="url(#filter1_i_810_150)">
<path d="M15.999 28.3075C22.7963 28.3075 28.3067 22.7972 28.3067 15.9998C28.3067 9.20248 22.7963 3.69214 15.999 3.69214C9.20163 3.69214 3.69128 9.20248 3.69128 15.9998C3.69128 22.7972 9.20163 28.3075 15.999 28.3075Z" fill="white" fill-opacity="0.1"/>
</g>
<defs>
<filter id="filter0_bi_810_150" x="-6" y="-6" width="44" height="44" filterUnits="userSpaceOnUse" color-interpolation-filters="sRGB">
<feFlood flood-opacity="0" result="BackgroundImageFix"/>
<feGaussianBlur in="BackgroundImageFix" stdDeviation="3"/>
<feComposite in2="SourceAlpha" operator="in" result="effect1_backgroundBlur_810_150"/>
<feBlend mode="normal" in="SourceGraphic" in2="effect1_backgroundBlur_810_150" result="shape"/>
<feColorMatrix in="SourceAlpha" type="matrix" values="0 0 0 0 0 0 0 0 0 0 0 0 0 0 0 0 0 0 127 0" result="hardAlpha"/>
<feOffset dy="2"/>
<feGaussianBlur stdDeviation="1.5"/>
<feComposite in2="hardAlpha" operator="arithmetic" k2="-1" k3="1"/>
<feColorMatrix type="matrix" values="0 0 0 0 1 0 0 0 0 1 0 0 0 0 1 0 0 0 0.15 0"/>
<feBlend mode="normal" in2="shape" result="effect2_innerShadow_810_150"/>
</filter>
<filter id="filter1_i_810_150" x="3.69128" y="3.69214" width="24.6154" height="26.6154" filterUnits="userSpaceOnUse" color-interpolation-filters="sRGB">
<feFlood flood-opacity="0" result="BackgroundImageFix"/>
<feBlend mode="normal" in="SourceGraphic" in2="BackgroundImageFix" result="shape"/>
<feColorMatrix in="SourceAlpha" type="matrix" values="0 0 0 0 0 0 0 0 0 0 0 0 0 0 0 0 0 0 127 0" result="hardAlpha"/>
<feOffset dy="2"/>
<feGaussianBlur stdDeviation="1"/>
<feComposite in2="hardAlpha" operator="arithmetic" k2="-1" k3="1"/>
<feColorMatrix type="matrix" values="0 0 0 0 1 0 0 0 0 1 0 0 0 0 1 0 0 0 0.1 0"/>
<feBlend mode="normal" in2="shape" result="effect1_innerShadow_810_150"/>
</filter>
<linearGradient id="paint0_linear_810_150" x1="11.7778" y1="11.7776" x2="22.9035" y2="14.6026" gradientUnits="userSpaceOnUse">
<stop stop-color="#75A5FF"/>
<stop offset="0.703125" stop-color="#1C267F"/>
</linearGradient>
<linearGradient id="paint1_linear_810_150" x1="0" y1="0" x2="37.695" y2="9.57146" gradientUnits="userSpaceOnUse">
<stop stop-color="#87FFE1"/>
<stop offset="0.776042" stop-color="#5C6DFF"/>
</linearGradient>
<linearGradient id="paint2_linear_810_150" x1="1" y1="1.45455" x2="32" y2="1.45455" gradientUnits="userSpaceOnUse">
<stop stop-color="#3CDEB6"/>
<stop offset="0.65625" stop-color="#364AFF"/>
</linearGradient>
</defs>
</svg>
