<svg width="32" height="32" viewBox="0 0 32 32" fill="none" xmlns="http://www.w3.org/2000/svg">
<g filter="url(#filter0_bi_810_198)">
<path d="M16 32C24.8366 32 32 24.8366 32 16C32 7.16344 24.8366 0 16 0C7.16344 0 0 7.16344 0 16C0 24.8366 7.16344 32 16 32Z" fill="#1D1D1D" fill-opacity="0.05"/>
<path d="M16 32C24.8366 32 32 24.8366 32 16C32 7.16344 24.8366 0 16 0C7.16344 0 0 7.16344 0 16C0 24.8366 7.16344 32 16 32Z" fill="url(#paint0_linear_810_198)" fill-opacity="0.2"/>
<path d="M31.85 16C31.85 24.7537 24.7537 31.85 16 31.85C7.24629 31.85 0.15 24.7537 0.15 16C0.15 7.24629 7.24629 0.15 16 0.15C24.7537 0.15 31.85 7.24629 31.85 16Z" stroke="url(#paint1_linear_810_198)" stroke-opacity="0.1" stroke-width="0.3"/>
</g>
<g filter="url(#filter1_i_810_198)">
<path d="M16.0001 28.8325C23.0084 28.8325 28.6897 23.1511 28.6897 16.1428C28.6897 9.13454 23.0084 3.45319 16.0001 3.45319C8.99178 3.45319 3.31042 9.13454 3.31042 16.1428C3.31042 23.1511 8.99178 28.8325 16.0001 28.8325Z" fill="white" fill-opacity="0.1"/>
</g>
<defs>
<filter id="filter0_bi_810_198" x="-6" y="-6" width="44" height="44" filterUnits="userSpaceOnUse" color-interpolation-filters="sRGB">
<feFlood flood-opacity="0" result="BackgroundImageFix"/>
<feGaussianBlur in="BackgroundImageFix" stdDeviation="3"/>
<feComposite in2="SourceAlpha" operator="in" result="effect1_backgroundBlur_810_198"/>
<feBlend mode="normal" in="SourceGraphic" in2="effect1_backgroundBlur_810_198" result="shape"/>
<feColorMatrix in="SourceAlpha" type="matrix" values="0 0 0 0 0 0 0 0 0 0 0 0 0 0 0 0 0 0 127 0" result="hardAlpha"/>
<feOffset dy="2"/>
<feGaussianBlur stdDeviation="1.5"/>
<feComposite in2="hardAlpha" operator="arithmetic" k2="-1" k3="1"/>
<feColorMatrix type="matrix" values="0 0 0 0 1 0 0 0 0 1 0 0 0 0 1 0 0 0 0.15 0"/>
<feBlend mode="normal" in2="shape" result="effect2_innerShadow_810_198"/>
</filter>
<filter id="filter1_i_810_198" x="3.31042" y="3.45319" width="25.3793" height="27.3793" filterUnits="userSpaceOnUse" color-interpolation-filters="sRGB">
<feFlood flood-opacity="0" result="BackgroundImageFix"/>
<feBlend mode="normal" in="SourceGraphic" in2="BackgroundImageFix" result="shape"/>
<feColorMatrix in="SourceAlpha" type="matrix" values="0 0 0 0 0 0 0 0 0 0 0 0 0 0 0 0 0 0 127 0" result="hardAlpha"/>
<feOffset dy="2"/>
<feGaussianBlur stdDeviation="1"/>
<feComposite in2="hardAlpha" operator="arithmetic" k2="-1" k3="1"/>
<feColorMatrix type="matrix" values="0 0 0 0 1 0 0 0 0 1 0 0 0 0 1 0 0 0 0.1 0"/>
<feBlend mode="normal" in2="shape" result="effect1_innerShadow_810_198"/>
</filter>
<linearGradient id="paint0_linear_810_198" x1="0" y1="0" x2="37.695" y2="9.57146" gradientUnits="userSpaceOnUse">
<stop stop-color="#BFBFBF"/>
<stop offset="1" stop-color="#9C9C9C"/>
</linearGradient>
<linearGradient id="paint1_linear_810_198" x1="1" y1="1.45455" x2="32" y2="1.45455" gradientUnits="userSpaceOnUse">
<stop stop-color="#CCCCCC"/>
<stop offset="1" stop-color="#808080"/>
</linearGradient>
</defs>
</svg>
