<svg width="32" height="33" viewBox="0 0 32 33" fill="none" xmlns="http://www.w3.org/2000/svg">
<path d="M16 25.5221C21.1801 25.5221 25.3793 21.3228 25.3793 16.1428C25.3793 10.9627 21.1801 6.76344 16 6.76344C10.82 6.76344 6.62073 10.9627 6.62073 16.1428C6.62073 21.3228 10.82 25.5221 16 25.5221Z" fill="url(#paint0_linear_810_246)" fill-opacity="0.67"/>
<g filter="url(#filter0_bi_810_246)">
<path d="M16 32.1429C24.8366 32.1429 32 24.9794 32 16.1429C32 7.3063 24.8366 0.142853 16 0.142853C7.16344 0.142853 0 7.3063 0 16.1429C0 24.9794 7.16344 32.1429 16 32.1429Z" fill="#1D1D1D" fill-opacity="0.05"/>
<path d="M16 32.1429C24.8366 32.1429 32 24.9794 32 16.1429C32 7.3063 24.8366 0.142853 16 0.142853C7.16344 0.142853 0 7.3063 0 16.1429C0 24.9794 7.16344 32.1429 16 32.1429Z" fill="url(#paint1_linear_810_246)" fill-opacity="0.2"/>
<path d="M31.85 16.1429C31.85 24.8966 24.7537 31.9929 16 31.9929C7.24629 31.9929 0.15 24.8966 0.15 16.1429C0.15 7.38914 7.24629 0.292853 16 0.292853C24.7537 0.292853 31.85 7.38914 31.85 16.1429Z" stroke="url(#paint2_linear_810_246)" stroke-opacity="0.1" stroke-width="0.3"/>
</g>
<g filter="url(#filter1_i_810_246)">
<path d="M16 28.8326C23.0083 28.8326 28.6896 23.1513 28.6896 16.143C28.6896 9.13466 23.0083 3.45331 16 3.45331C8.99165 3.45331 3.3103 9.13466 3.3103 16.143C3.3103 23.1513 8.99165 28.8326 16 28.8326Z" fill="white" fill-opacity="0.1"/>
</g>
<defs>
<filter id="filter0_bi_810_246" x="-6" y="-5.85715" width="44" height="44" filterUnits="userSpaceOnUse" color-interpolation-filters="sRGB">
<feFlood flood-opacity="0" result="BackgroundImageFix"/>
<feGaussianBlur in="BackgroundImageFix" stdDeviation="3"/>
<feComposite in2="SourceAlpha" operator="in" result="effect1_backgroundBlur_810_246"/>
<feBlend mode="normal" in="SourceGraphic" in2="effect1_backgroundBlur_810_246" result="shape"/>
<feColorMatrix in="SourceAlpha" type="matrix" values="0 0 0 0 0 0 0 0 0 0 0 0 0 0 0 0 0 0 127 0" result="hardAlpha"/>
<feOffset dy="2"/>
<feGaussianBlur stdDeviation="1.5"/>
<feComposite in2="hardAlpha" operator="arithmetic" k2="-1" k3="1"/>
<feColorMatrix type="matrix" values="0 0 0 0 1 0 0 0 0 1 0 0 0 0 1 0 0 0 0.15 0"/>
<feBlend mode="normal" in2="shape" result="effect2_innerShadow_810_246"/>
</filter>
<filter id="filter1_i_810_246" x="3.3103" y="3.45331" width="25.3793" height="27.3793" filterUnits="userSpaceOnUse" color-interpolation-filters="sRGB">
<feFlood flood-opacity="0" result="BackgroundImageFix"/>
<feBlend mode="normal" in="SourceGraphic" in2="BackgroundImageFix" result="shape"/>
<feColorMatrix in="SourceAlpha" type="matrix" values="0 0 0 0 0 0 0 0 0 0 0 0 0 0 0 0 0 0 127 0" result="hardAlpha"/>
<feOffset dy="2"/>
<feGaussianBlur stdDeviation="1"/>
<feComposite in2="hardAlpha" operator="arithmetic" k2="-1" k3="1"/>
<feColorMatrix type="matrix" values="0 0 0 0 1 0 0 0 0 1 0 0 0 0 1 0 0 0 0.1 0"/>
<feBlend mode="normal" in2="shape" result="effect1_innerShadow_810_246"/>
</filter>
<linearGradient id="paint0_linear_810_246" x1="6.62073" y1="6.76344" x2="28.7178" y2="12.3743" gradientUnits="userSpaceOnUse">
<stop stop-color="#E22F3A" stop-opacity="0.63"/>
<stop offset="1" stop-color="#E0303A" stop-opacity="0.33"/>
</linearGradient>
<linearGradient id="paint1_linear_810_246" x1="0" y1="0.142853" x2="37.695" y2="9.71432" gradientUnits="userSpaceOnUse">
<stop stop-color="#E4434B" stop-opacity="0.48"/>
<stop offset="1" stop-color="#9C9C9C"/>
</linearGradient>
<linearGradient id="paint2_linear_810_246" x1="1" y1="1.5974" x2="32" y2="1.5974" gradientUnits="userSpaceOnUse">
<stop stop-color="#CCCCCC"/>
<stop offset="1" stop-color="#808080"/>
</linearGradient>
</defs>
</svg>
