<svg width="24" height="25" viewBox="0 0 24 25" fill="none" xmlns="http://www.w3.org/2000/svg">
<g id="vuesax/bulk/user-octagon">
<g id="user-octagon">
<path id="Vector" opacity="0.4" d="M21.0799 9.08003V15.92C21.0799 17.04 20.4799 18.08 19.5099 18.65L13.5699 22.08C12.5999 22.64 11.3999 22.64 10.4199 22.08L4.47991 18.65C3.50991 18.09 2.90991 17.05 2.90991 15.92V9.08003C2.90991 7.96003 3.50991 6.91999 4.47991 6.34999L10.4199 2.92C11.3899 2.36 12.5899 2.36 13.5699 2.92L19.5099 6.34999C20.4799 6.91999 21.0799 7.95003 21.0799 9.08003Z" fill="#193F34"/>
<g id="Group">
<path id="Vector_2" d="M11.9999 12.5001C13.2867 12.5001 14.3299 11.4569 14.3299 10.17C14.3299 8.88322 13.2867 7.84009 11.9999 7.84009C10.7131 7.84009 9.66992 8.88322 9.66992 10.17C9.66992 11.4569 10.7131 12.5001 11.9999 12.5001Z" fill="#193F34"/>
<path id="Vector_3" d="M14.6799 17.1601C15.4899 17.1601 15.9599 16.2601 15.5099 15.5901C14.8299 14.5801 13.5099 13.9001 11.9999 13.9001C10.4899 13.9001 9.16992 14.5801 8.48992 15.5901C8.03992 16.2601 8.50992 17.1601 9.31992 17.1601H14.6799Z" fill="#193F34"/>
</g>
</g>
</g>
</svg>
