<svg width="24" height="24" viewBox="0 0 24 24" fill="none" xmlns="http://www.w3.org/2000/svg">
<g id="Frame 1010105859">
<g id="Group 2">
<ellipse id="Ellipse 2" cx="17.3378" cy="4.08134" rx="3.18615" ry="3.08134" fill="#193F34"/>
<g id="Group 1">
<path id="Ellipse 3" d="M18.0204 16.7368C18.0204 20.7481 14.658 23.9999 10.5102 23.9999C6.36243 23.9999 3 20.7481 3 16.7368C3 12.7255 6.36243 9.47363 10.5102 9.47363C14.658 9.47363 18.0204 12.7255 18.0204 16.7368ZM7.75707 16.7346C7.75707 18.6459 8.8836 19.4105 10.5102 19.7927C12.2632 19.7927 13.8074 18.4979 13.8074 16.7368C13.8074 14.9757 12.5822 13.6764 10.7612 13.6764C8.94015 13.6764 7.75707 14.8232 7.75707 16.7346Z" fill="#193F34"/>
<rect id="Rectangle 1" x="14.948" y="9.47363" width="4.77922" height="13.866" fill="#193F34"/>
</g>
</g>
</g>
</svg>
