<svg width="24" height="24" viewBox="0 0 24 24" fill="none" xmlns="http://www.w3.org/2000/svg">
<g id="Frame 1010105868">
<g id="Union">
<mask id="path-1-inside-1_1153_882" fill="white">
<path fill-rule="evenodd" clip-rule="evenodd" d="M20.5239 4.08134C20.5239 5.78312 19.0974 7.16269 17.3378 7.16269C15.5781 7.16269 14.1516 5.78312 14.1516 4.08134C14.1516 2.37956 15.5781 1 17.3378 1C19.0974 1 20.5239 2.37956 20.5239 4.08134ZM14.9481 22.5969C13.7048 23.479 12.1704 24 10.5102 24C6.36244 24 3 20.7481 3 16.7368C3 12.7255 6.36244 9.47364 10.5102 9.47364C12.1704 9.47364 13.7048 9.99461 14.9481 10.8767V9.47366H19.7273V23.3397H14.9481V22.5969ZM7.75708 16.7346C7.75708 18.6459 8.88361 19.4105 10.5102 19.7928C12.2632 19.7928 13.8074 18.4979 13.8074 16.7368C13.8074 14.9757 12.5822 13.6764 10.7612 13.6764C8.94016 13.6764 7.75708 14.8232 7.75708 16.7346Z"/>
</mask>
<path fill-rule="evenodd" clip-rule="evenodd" d="M20.5239 4.08134C20.5239 5.78312 19.0974 7.16269 17.3378 7.16269C15.5781 7.16269 14.1516 5.78312 14.1516 4.08134C14.1516 2.37956 15.5781 1 17.3378 1C19.0974 1 20.5239 2.37956 20.5239 4.08134ZM14.9481 22.5969C13.7048 23.479 12.1704 24 10.5102 24C6.36244 24 3 20.7481 3 16.7368C3 12.7255 6.36244 9.47364 10.5102 9.47364C12.1704 9.47364 13.7048 9.99461 14.9481 10.8767V9.47366H19.7273V23.3397H14.9481V22.5969ZM7.75708 16.7346C7.75708 18.6459 8.88361 19.4105 10.5102 19.7928C12.2632 19.7928 13.8074 18.4979 13.8074 16.7368C13.8074 14.9757 12.5822 13.6764 10.7612 13.6764C8.94016 13.6764 7.75708 14.8232 7.75708 16.7346Z" fill="white"/>
<path d="M14.9481 22.5969H16.1981V20.1774L14.2248 21.5774L14.9481 22.5969ZM14.9481 10.8767L14.2248 11.8962L16.1981 13.2963V10.8767H14.9481ZM14.9481 9.47366V8.22366H13.6981V9.47366H14.9481ZM19.7273 9.47366H20.9773V8.22366H19.7273V9.47366ZM19.7273 23.3397V24.5897H20.9773V23.3397H19.7273ZM14.9481 23.3397H13.6981V24.5897H14.9481V23.3397ZM10.5102 19.7928L10.2242 21.0096L10.3653 21.0428H10.5102V19.7928ZM17.3378 8.41269C19.748 8.41269 21.7739 6.51256 21.7739 4.08134H19.2739C19.2739 5.05369 18.4468 5.91269 17.3378 5.91269V8.41269ZM12.9016 4.08134C12.9016 6.51256 14.9275 8.41269 17.3378 8.41269V5.91269C16.2287 5.91269 15.4016 5.05369 15.4016 4.08134H12.9016ZM17.3378 -0.25C14.9275 -0.25 12.9016 1.65013 12.9016 4.08134H15.4016C15.4016 3.109 16.2287 2.25 17.3378 2.25V-0.25ZM21.7739 4.08134C21.7739 1.65013 19.748 -0.25 17.3378 -0.25V2.25C18.4468 2.25 19.2739 3.109 19.2739 4.08134H21.7739ZM10.5102 25.25C12.435 25.25 14.2212 24.6453 15.6714 23.6164L14.2248 21.5774C13.1883 22.3128 11.9058 22.75 10.5102 22.75V25.25ZM1.75 16.7368C1.75 21.4776 5.71182 25.25 10.5102 25.25V22.75C7.01305 22.75 4.25 20.0187 4.25 16.7368H1.75ZM10.5102 8.22364C5.71182 8.22364 1.75 11.996 1.75 16.7368H4.25C4.25 13.4549 7.01305 10.7236 10.5102 10.7236V8.22364ZM15.6714 9.85726C14.2212 8.82836 12.435 8.22364 10.5102 8.22364V10.7236C11.9058 10.7236 13.1883 11.1609 14.2248 11.8962L15.6714 9.85726ZM16.1981 10.8767V9.47366H13.6981V10.8767H16.1981ZM14.9481 10.7237H19.7273V8.22366H14.9481V10.7237ZM18.4773 9.47366V23.3397H20.9773V9.47366H18.4773ZM19.7273 22.0897H14.9481V24.5897H19.7273V22.0897ZM16.1981 23.3397V22.5969H13.6981V23.3397H16.1981ZM10.7962 18.5759C10.0745 18.4063 9.64743 18.1895 9.401 17.9467C9.19739 17.7461 9.00708 17.421 9.00708 16.7346H6.50708C6.50708 17.9595 6.88004 18.9724 7.64635 19.7275C8.36983 20.4403 9.31931 20.7969 10.2242 21.0096L10.7962 18.5759ZM12.5574 16.7368C12.5574 17.6853 11.7018 18.5428 10.5102 18.5428V21.0428C12.8246 21.0428 15.0574 19.3106 15.0574 16.7368H12.5574ZM10.7612 14.9264C11.3635 14.9264 11.7942 15.1351 12.0743 15.421C12.3577 15.7102 12.5574 16.1511 12.5574 16.7368H15.0574C15.0574 15.5614 14.6445 14.4721 13.86 13.6714C13.0722 12.8673 11.9798 12.4264 10.7612 12.4264V14.9264ZM9.00708 16.7346C9.00708 16.0399 9.21677 15.617 9.462 15.3707C9.70748 15.1242 10.1162 14.9264 10.7612 14.9264V12.4264C9.58515 12.4264 8.4918 12.802 7.69048 13.6067C6.88893 14.4117 6.50708 15.5179 6.50708 16.7346H9.00708Z" fill="#767F7C" mask="url(#path-1-inside-1_1153_882)"/>
</g>
</g>
</svg>
