<svg width="24" height="24" viewBox="0 0 24 24" fill="none" xmlns="http://www.w3.org/2000/svg">
<path d="M22.8113 10.9404L21.3113 9.4404C21.0569 9.18629 20.7197 9.03202 20.361 9.00569C20.0024 8.97936 19.6463 9.08273 19.3575 9.29696L14.7038 4.64321C14.9181 4.35453 15.0216 3.99847 14.9955 3.63986C14.9693 3.28126 14.8152 2.94398 14.5613 2.68946L13.0613 1.18946C12.922 1.05014 12.7566 0.939617 12.5746 0.864214C12.3926 0.78881 12.1975 0.75 12.0005 0.75C11.8035 0.75 11.6084 0.78881 11.4264 0.864214C11.2444 0.939617 11.079 1.05014 10.9397 1.18946L4.93971 7.18946C4.80038 7.32875 4.68987 7.49413 4.61446 7.67614C4.53906 7.85815 4.50025 8.05323 4.50025 8.25024C4.50025 8.44725 4.53906 8.64234 4.61446 8.82435C4.68987 9.00636 4.80038 9.17173 4.93971 9.31102L6.43971 10.811C6.69417 11.0647 7.03127 11.2187 7.38966 11.2448C7.74805 11.271 8.10392 11.1676 8.39252 10.9535L9.06471 11.6257L2.93533 17.7551C2.52812 18.2004 2.30838 18.7857 2.32188 19.389C2.33537 19.9923 2.58105 20.5672 3.00776 20.9939C3.43447 21.4206 4.00933 21.6663 4.61264 21.6798C5.21596 21.6933 5.80122 21.4735 6.24658 21.0663L12.375 14.937L13.0472 15.6082C12.8329 15.8969 12.7293 16.253 12.7555 16.6116C12.7816 16.9702 12.9357 17.3074 13.1897 17.562L14.6897 19.062C14.829 19.2013 14.9944 19.3118 15.1764 19.3872C15.3584 19.4626 15.5535 19.5014 15.7505 19.5014C15.9475 19.5014 16.1426 19.4626 16.3246 19.3872C16.5066 19.3118 16.672 19.2013 16.8113 19.062L22.8113 13.062C22.9506 12.9227 23.0611 12.7573 23.1365 12.5753C23.2119 12.3933 23.2507 12.1982 23.2507 12.0012C23.2507 11.8042 23.2119 11.6091 23.1365 11.4271C23.0611 11.2451 22.9506 11.0797 22.8113 10.9404ZM5.18627 20.0051C5.02818 20.1622 4.81433 20.2504 4.59143 20.2504C4.36852 20.2504 4.15467 20.1622 3.99658 20.0051C3.83972 19.847 3.75169 19.6334 3.75169 19.4107C3.75169 19.188 3.83972 18.9744 3.99658 18.8163L10.125 12.687L11.3147 13.8757L5.18627 20.0051ZM9.46877 9.90634L13.6556 5.71946L18.2813 10.3451L14.0953 14.532L9.46877 9.90634Z" fill="#193F34"/>
</svg>
