<svg width="32" height="32" viewBox="0 0 32 32" fill="none" xmlns="http://www.w3.org/2000/svg">
<path d="M15.6577 2.64111C16.0361 2.26277 16.6495 2.26277 17.0278 2.64111L19.3114 4.92465C19.6897 5.303 19.6897 5.91642 19.3114 6.29477L13.3742 12.232C12.9958 12.6103 12.3824 12.6103 12.0041 12.232L9.72053 9.94842C9.34218 9.57007 9.34218 8.95665 9.72053 8.5783L15.6577 2.64111Z" fill="#193F34"/>
<path d="M16.1144 12.6887L19.3114 15.8856L12.0041 23.1929C11.1213 24.0757 9.68993 24.0757 8.80712 23.1929C7.9243 22.3101 7.9243 20.8788 8.80712 19.996L16.1144 12.6887Z" fill="#193F34"/>
<path d="M25.7053 12.6887C26.0836 12.3103 26.697 12.3103 27.0754 12.6887L29.3589 14.9722C29.7373 15.3505 29.7373 15.964 29.3589 16.3423L23.4217 22.2795C23.0434 22.6578 22.43 22.6578 22.0516 22.2795L19.7681 19.996C19.3897 19.6176 19.3897 19.0042 19.7681 18.6258L25.7053 12.6887Z" fill="#193F34"/>
<path d="M18.1696 7.43653L24.5635 13.8304L20.9098 17.4841L14.5159 11.0902L18.1696 7.43653Z" fill="#193F34"/>
</svg>
