<svg width="12" height="12" viewBox="0 0 12 12" fill="none" xmlns="http://www.w3.org/2000/svg">
<g opacity="0.78">
<path d="M6 2.65009V10.6651C5.915 10.6651 5.825 10.6501 5.755 10.6101L5.735 10.6001C4.775 10.0751 3.1 9.52509 2.015 9.38009L1.87 9.36009C1.39 9.30009 1 8.85009 1 8.37009V2.33009C1 1.73509 1.485 1.28509 2.08 1.33509C3.13 1.42009 4.72 1.95009 5.61 2.50509L5.735 2.58009C5.81 2.62509 5.905 2.65009 6 2.65009Z" fill="#0F2B23"/>
<path opacity="0.6" d="M11 2.33501V8.37001C11 8.85001 10.61 9.30001 10.13 9.36001L9.965 9.38001C8.875 9.52501 7.195 10.08 6.235 10.61C6.17 10.65 6.09 10.665 6 10.665V2.65001C6.095 2.65001 6.19 2.62501 6.265 2.58001L6.35 2.52501C7.24 1.96501 8.835 1.43001 9.885 1.34001H9.915C10.51 1.29001 11 1.73501 11 2.33501Z" fill="#0F2B23"/>
<path d="M3.875 4.62012H2.75C2.545 4.62012 2.375 4.45012 2.375 4.24512C2.375 4.04012 2.545 3.87012 2.75 3.87012H3.875C4.08 3.87012 4.25 4.04012 4.25 4.24512C4.25 4.45012 4.08 4.62012 3.875 4.62012Z" fill="white"/>
<path d="M4.25 6.12012H2.75C2.545 6.12012 2.375 5.95012 2.375 5.74512C2.375 5.54012 2.545 5.37012 2.75 5.37012H4.25C4.455 5.37012 4.625 5.54012 4.625 5.74512C4.625 5.95012 4.455 6.12012 4.25 6.12012Z" fill="white"/>
</g>
</svg>
