<svg width="12" height="12" viewBox="0 0 12 12" fill="none" xmlns="http://www.w3.org/2000/svg">
<g opacity="0.78">
<path d="M8.37511 1.78V1C8.37511 0.795 8.20511 0.625 8.00011 0.625C7.79511 0.625 7.62511 0.795 7.62511 1V1.75H4.37511V1C4.37511 0.795 4.20511 0.625 4.00011 0.625C3.79511 0.625 3.62511 0.795 3.62511 1V1.78C2.27511 1.905 1.62011 2.71 1.52011 3.905C1.51011 4.05 1.63011 4.17 1.77011 4.17H10.2301C10.3751 4.17 10.4951 4.045 10.4801 3.905C10.3801 2.71 9.72511 1.905 8.37511 1.78Z" fill="#0F2B23"/>
<path d="M10 4.91992C10.275 4.91992 10.5 5.14492 10.5 5.41992V8.49992C10.5 9.99992 9.75 10.9999 8 10.9999H4C2.25 10.9999 1.5 9.99992 1.5 8.49992V5.41992C1.5 5.14492 1.725 4.91992 2 4.91992H10Z" fill="#0F2B23"/>
<path d="M4.25 7.50018C4.12 7.50018 3.99 7.44518 3.895 7.35518C3.805 7.26018 3.75 7.13018 3.75 7.00018C3.75 6.87018 3.805 6.74018 3.895 6.64518C4.035 6.50519 4.255 6.46017 4.44 6.54017C4.505 6.56517 4.56 6.60018 4.605 6.64518C4.695 6.74018 4.75 6.87018 4.75 7.00018C4.75 7.13018 4.695 7.26018 4.605 7.35518C4.51 7.44518 4.38 7.50018 4.25 7.50018Z" fill="white"/>
<path d="M6 7.50018C5.87 7.50018 5.74 7.44518 5.645 7.35518C5.555 7.26018 5.5 7.13018 5.5 7.00018C5.5 6.87018 5.555 6.74018 5.645 6.64518C5.69 6.60018 5.745 6.56517 5.81 6.54017C5.995 6.46017 6.215 6.50519 6.355 6.64518C6.445 6.74018 6.5 6.87018 6.5 7.00018C6.5 7.13018 6.445 7.26018 6.355 7.35518C6.33 7.37518 6.305 7.39517 6.28 7.41517C6.25 7.43517 6.22 7.45019 6.19 7.46019C6.16 7.47519 6.13 7.48519 6.1 7.49019C6.065 7.49519 6.035 7.50018 6 7.50018Z" fill="white"/>
<path d="M7.75 7.50001C7.62 7.50001 7.49 7.445 7.395 7.355C7.305 7.26 7.25 7.13001 7.25 7.00001C7.25 6.87001 7.305 6.74001 7.395 6.64501C7.445 6.60001 7.495 6.565 7.56 6.54C7.65 6.5 7.75 6.49 7.85 6.51C7.88 6.515 7.91 6.525 7.94 6.54C7.97 6.55 8 6.56501 8.03 6.58501C8.055 6.60501 8.08 6.62501 8.105 6.64501C8.195 6.74001 8.25 6.87001 8.25 7.00001C8.25 7.13001 8.195 7.26 8.105 7.355C8.08 7.375 8.055 7.395 8.03 7.415C8 7.435 7.97 7.45001 7.94 7.46001C7.91 7.47501 7.88 7.48501 7.85 7.49001C7.815 7.49501 7.78 7.50001 7.75 7.50001Z" fill="white"/>
<path d="M4.25 9.25001C4.185 9.25001 4.12 9.23501 4.06 9.21001C3.995 9.18501 3.945 9.15 3.895 9.105C3.805 9.01 3.75 8.88001 3.75 8.75001C3.75 8.62001 3.805 8.49001 3.895 8.39501C3.945 8.35001 3.995 8.315 4.06 8.29C4.15 8.25 4.25 8.24 4.35 8.26C4.38 8.265 4.41 8.275 4.44 8.29C4.47 8.3 4.5 8.31501 4.53 8.33501C4.555 8.35501 4.58 8.37501 4.605 8.39501C4.695 8.49001 4.75 8.62001 4.75 8.75001C4.75 8.88001 4.695 9.01 4.605 9.105C4.58 9.125 4.555 9.15 4.53 9.165C4.5 9.185 4.47 9.20001 4.44 9.21001C4.41 9.22501 4.38 9.23501 4.35 9.24001C4.315 9.24501 4.285 9.25001 4.25 9.25001Z" fill="white"/>
<path d="M6 9.24985C5.87 9.24985 5.74 9.19485 5.645 9.10485C5.555 9.00985 5.5 8.87985 5.5 8.74985C5.5 8.61985 5.555 8.48985 5.645 8.39485C5.83 8.20985 6.17 8.20985 6.355 8.39485C6.445 8.48985 6.5 8.61985 6.5 8.74985C6.5 8.87985 6.445 9.00985 6.355 9.10485C6.26 9.19485 6.13 9.24985 6 9.24985Z" fill="white"/>
<path d="M7.75 9.24985C7.62 9.24985 7.49 9.19485 7.395 9.10485C7.305 9.00985 7.25 8.87985 7.25 8.74985C7.25 8.61985 7.305 8.48985 7.395 8.39485C7.58 8.20985 7.92 8.20985 8.105 8.39485C8.195 8.48985 8.25 8.61985 8.25 8.74985C8.25 8.87985 8.195 9.00985 8.105 9.10485C8.01 9.19485 7.88 9.24985 7.75 9.24985Z" fill="white"/>
</g>
</svg>
