<svg width="28" height="28" viewBox="0 0 28 28" fill="none" xmlns="http://www.w3.org/2000/svg">
<g id="vuesax/bulk/call">
<g id="call">
<path id="Vector" opacity="0.4" d="M13.7547 16.5784L9.93968 20.3934C9.51968 20.02 9.11134 19.635 8.71467 19.2384C7.51301 18.025 6.42801 16.7534 5.45967 15.4234C4.50301 14.0934 3.73301 12.7634 3.17301 11.445C2.61301 10.115 2.33301 8.84337 2.33301 7.63004C2.33301 6.83671 2.47301 6.07837 2.75301 5.37837C3.03301 4.66671 3.47634 4.01337 4.09467 3.43004C4.84134 2.69504 5.65801 2.33337 6.52134 2.33337C6.84801 2.33337 7.17467 2.40337 7.46634 2.54337C7.76967 2.68337 8.03801 2.89337 8.24801 3.19671L10.9547 7.01171C11.1647 7.30337 11.3163 7.57171 11.4213 7.82837C11.5263 8.07337 11.5847 8.31837 11.5847 8.54004C11.5847 8.82004 11.503 9.10004 11.3397 9.36837C11.188 9.63671 10.9663 9.91671 10.6863 10.1967L9.79967 11.1184C9.67134 11.2467 9.61301 11.3984 9.61301 11.585C9.61301 11.6784 9.62468 11.76 9.64801 11.8534C9.68301 11.9467 9.71801 12.0167 9.74134 12.0867C9.95134 12.4717 10.313 12.9734 10.8263 13.58C11.3513 14.1867 11.9113 14.805 12.518 15.4234C12.938 15.8317 13.3463 16.2284 13.7547 16.5784Z" fill="#3B4542"/>
<path id="Vector_2" d="M25.6319 21.385C25.6319 21.7117 25.5735 22.05 25.4569 22.3767C25.4219 22.47 25.3869 22.5633 25.3402 22.6567C25.1419 23.0767 24.8852 23.4733 24.5469 23.8467C23.9752 24.4767 23.3452 24.9317 22.6335 25.2233C22.6219 25.2233 22.6102 25.235 22.5985 25.235C21.9102 25.515 21.1635 25.6667 20.3585 25.6667C19.1685 25.6667 17.8969 25.3867 16.5552 24.815C15.2135 24.2433 13.8719 23.4733 12.5419 22.505C12.0869 22.1667 11.6319 21.8283 11.2002 21.4667L15.0152 17.6517C15.3419 17.8967 15.6335 18.0833 15.8785 18.2117C15.9369 18.235 16.0069 18.27 16.0885 18.305C16.1819 18.34 16.2752 18.3517 16.3802 18.3517C16.5785 18.3517 16.7302 18.2817 16.8585 18.1533L17.7452 17.2783C18.0369 16.9867 18.3169 16.765 18.5852 16.625C18.8535 16.4617 19.1219 16.38 19.4135 16.38C19.6352 16.38 19.8685 16.4267 20.1252 16.5317C20.3819 16.6367 20.6502 16.7883 20.9419 16.9867L24.8035 19.7283C25.1069 19.9383 25.3169 20.1833 25.4452 20.475C25.5619 20.7667 25.6319 21.0583 25.6319 21.385Z" fill="#3B4542"/>
</g>
</g>
</svg>
