<svg width="25" height="25" viewBox="0 0 25 25" fill="none" xmlns="http://www.w3.org/2000/svg">
<path opacity="0.4" d="M7.26005 22.5H17.74C20.5 22.5 21.6 20.81 21.73 18.75L22.25 10.49C22.39 8.33 20.67 6.5 18.5 6.5C17.89 6.5 17.33 6.15 17.05 5.61L16.33 4.16C15.87 3.25 14.67 2.5 13.65 2.5H11.36C10.33 2.5 9.13005 3.25 8.67005 4.16L7.95005 5.61C7.67004 6.15 7.11005 6.5 6.50005 6.5C4.33005 6.5 2.61005 8.33 2.75005 10.49L3.27005 18.75C3.39005 20.81 4.50005 22.5 7.26005 22.5Z" fill="#182521"/>
<path d="M14 9.25H11C10.59 9.25 10.25 8.91 10.25 8.5C10.25 8.09 10.59 7.75 11 7.75H14C14.41 7.75 14.75 8.09 14.75 8.5C14.75 8.91 14.41 9.25 14 9.25Z" fill="#182521"/>
<path d="M12.5 18.63C14.3667 18.63 15.88 17.1167 15.88 15.25C15.88 13.3833 14.3667 11.87 12.5 11.87C10.6333 11.87 9.12 13.3833 9.12 15.25C9.12 17.1167 10.6333 18.63 12.5 18.63Z" fill="#182521"/>
</svg>
