<svg width="32" height="32" viewBox="0 0 32 32" fill="none" xmlns="http://www.w3.org/2000/svg">
<g id="vuesax/linear/chart">
<g id="chart">
<path id="Vector" d="M4 29.333H28" stroke="#183D3D" stroke-width="2" stroke-linecap="round" stroke-linejoin="round"/>
<g id="Group">
<path id="Vector_2" d="M7.46663 11.1738H5.33333C4.6 11.1738 4 11.7738 4 12.5072V24.0005C4 24.7338 4.6 25.3338 5.33333 25.3338H7.46663C8.19997 25.3338 8.79997 24.7338 8.79997 24.0005V12.5072C8.79997 11.7738 8.19997 11.1738 7.46663 11.1738Z" stroke="#183D3D" stroke-width="2" stroke-linecap="round" stroke-linejoin="round"/>
<path id="Vector_3" d="M17.0662 6.91992H14.9329C14.1996 6.91992 13.5996 7.51992 13.5996 8.25326V23.9999C13.5996 24.7333 14.1996 25.3333 14.9329 25.3333H17.0662C17.7996 25.3333 18.3996 24.7333 18.3996 23.9999V8.25326C18.3996 7.51992 17.7996 6.91992 17.0662 6.91992Z" stroke="#183D3D" stroke-width="2" stroke-linecap="round" stroke-linejoin="round"/>
<path id="Vector_4" d="M26.6668 2.66699H24.5335C23.8002 2.66699 23.2002 3.26699 23.2002 4.00033V24.0003C23.2002 24.7337 23.8002 25.3337 24.5335 25.3337H26.6668C27.4002 25.3337 28.0002 24.7337 28.0002 24.0003V4.00033C28.0002 3.26699 27.4002 2.66699 26.6668 2.66699Z" stroke="#183D3D" stroke-width="2" stroke-linecap="round" stroke-linejoin="round"/>
</g>
</g>
</g>
</svg>
