<svg width="12" height="12" viewBox="0 0 12 12" fill="none" xmlns="http://www.w3.org/2000/svg">
<g id="vuesax/bulk/clock">
<g id="clock">
<path id="Vector" d="M6 11C8.76142 11 11 8.76142 11 6C11 3.23858 8.76142 1 6 1C3.23858 1 1 3.23858 1 6C1 8.76142 3.23858 11 6 11Z" fill="#3B4542"/>
<path id="Vector_2" d="M7.85495 7.965C7.78995 7.965 7.72495 7.95 7.66495 7.91L6.11495 6.985C5.72995 6.755 5.44495 6.25 5.44495 5.805V3.755C5.44495 3.55 5.61495 3.38 5.81995 3.38C6.02495 3.38 6.19495 3.55 6.19495 3.755V5.805C6.19495 5.985 6.34495 6.25001 6.49995 6.34L8.04995 7.265C8.22995 7.37 8.28495 7.60001 8.17995 7.78C8.10495 7.9 7.97995 7.965 7.85495 7.965Z" fill="white"/>
</g>
</g>
</svg>
