<svg width="12" height="12" viewBox="0 0 12 12" fill="none" xmlns="http://www.w3.org/2000/svg">
<g opacity="0.78">
<path d="M6 11C8.76142 11 11 8.76142 11 6C11 3.23858 8.76142 1 6 1C3.23858 1 1 3.23858 1 6C1 8.76142 3.23858 11 6 11Z" fill="#0F2B23"/>
<path d="M7.85482 7.96513C7.78982 7.96513 7.72482 7.95013 7.66482 7.91013L6.11482 6.98513C5.72982 6.75513 5.44482 6.25013 5.44482 5.80513V3.75513C5.44482 3.55013 5.61482 3.38013 5.81982 3.38013C6.02482 3.38013 6.19482 3.55013 6.19482 3.75513V5.80513C6.19482 5.98513 6.34482 6.25013 6.49982 6.34013L8.04982 7.26513C8.22982 7.37013 8.28482 7.60013 8.17982 7.78013C8.10482 7.90013 7.97982 7.96513 7.85482 7.96513Z" fill="#ffffff"/>
</g>
</svg>
