<svg width="120" height="120" viewBox="0 0 120 120" fill="none" xmlns="http://www.w3.org/2000/svg">
<g id="vuesax/bulk/close-circle">
<g id="close-circle">
<path id="Vector" opacity="0.4" d="M60 110C87.6142 110 110 87.6142 110 60C110 32.3858 87.6142 10 60 10C32.3858 10 10 32.3858 10 60C10 87.6142 32.3858 110 60 110Z" fill="#C62E15"/>
<path id="Vector_2" d="M65.2998 60L76.7998 48.5C78.2498 47.05 78.2498 44.65 76.7998 43.2C75.3498 41.75 72.9498 41.75 71.4998 43.2L59.9998 54.7L48.4998 43.2C47.0498 41.75 44.6498 41.75 43.1998 43.2C41.7498 44.65 41.7498 47.05 43.1998 48.5L54.6998 60L43.1998 71.5C41.7498 72.95 41.7498 75.35 43.1998 76.8C43.9498 77.55 44.8998 77.9 45.8498 77.9C46.7998 77.9 47.7498 77.55 48.4998 76.8L59.9998 65.3001L71.4998 76.8C72.2498 77.55 73.1998 77.9 74.1498 77.9C75.0998 77.9 76.0498 77.55 76.7998 76.8C78.2498 75.35 78.2498 72.95 76.7998 71.5L65.2998 60Z" fill="#C62E15"/>
</g>
</g>
</svg>
