<svg width="148" height="148" viewBox="0 0 148 148" fill="none" xmlns="http://www.w3.org/2000/svg">
<g id="vuesax/bulk/danger">
<g id="danger">
<path id="Vector" opacity="0.4" d="M134.187 98.174L94.72 27.134C89.4167 17.5757 82.0783 12.334 74 12.334C65.9217 12.334 58.5833 17.5757 53.28 27.134L13.8133 98.174C8.81833 107.239 8.26333 115.934 12.2717 122.779C16.28 129.624 24.1733 133.386 34.5333 133.386H113.467C123.827 133.386 131.72 129.624 135.728 122.779C139.737 115.934 139.182 107.177 134.187 98.174Z" fill="#193F34"/>
<path id="Vector_2" d="M74 90.9583C71.4717 90.9583 69.375 88.8617 69.375 86.3333V55.5C69.375 52.9717 71.4717 50.875 74 50.875C76.5283 50.875 78.625 52.9717 78.625 55.5V86.3333C78.625 88.8617 76.5283 90.9583 74 90.9583Z" fill="#193F34"/>
<path id="Vector_3" d="M74 110.999C73.63 110.999 73.1983 110.937 72.7667 110.876C72.3967 110.814 72.0267 110.691 71.6567 110.506C71.2867 110.382 70.9167 110.197 70.5467 109.951C70.2383 109.704 69.93 109.457 69.6217 109.211C68.5117 108.039 67.8333 106.436 67.8333 104.832C67.8333 103.229 68.5117 101.626 69.6217 100.454C69.93 100.207 70.2383 99.9608 70.5467 99.7141C70.9167 99.4675 71.2867 99.2825 71.6567 99.1591C72.0267 98.9741 72.3967 98.8508 72.7667 98.7891C73.5683 98.6041 74.4317 98.6041 75.1717 98.7891C75.6033 98.8508 75.9733 98.9741 76.3433 99.1591C76.7133 99.2825 77.0833 99.4675 77.4533 99.7141C77.7617 99.9608 78.07 100.207 78.3783 100.454C79.4883 101.626 80.1667 103.229 80.1667 104.832C80.1667 106.436 79.4883 108.039 78.3783 109.211C78.07 109.457 77.7617 109.704 77.4533 109.951C77.0833 110.197 76.7133 110.382 76.3433 110.506C75.9733 110.691 75.6033 110.814 75.1717 110.876C74.8017 110.937 74.37 110.999 74 110.999Z" fill="#193F34"/>
</g>
</g>
</svg>
