<svg width="25" height="25" viewBox="0 0 25 25" fill="none" xmlns="http://www.w3.org/2000/svg">
<g id="vuesax/bulk/document-upload">
<g id="document-upload">
<path id="Vector" opacity="0.4" d="M21 10.69H18.11C15.74 10.69 13.81 8.76 13.81 6.39V3.5C13.81 2.95 13.36 2.5 12.81 2.5H8.57C5.49 2.5 3 4.5 3 8.07V16.93C3 20.5 5.49 22.5 8.57 22.5H16.43C19.51 22.5 22 20.5 22 16.93V11.69C22 11.14 21.55 10.69 21 10.69Z" fill="#182521"/>
<path id="Vector_2" d="M16.3 2.70999C15.89 2.29999 15.18 2.57999 15.18 3.14999V6.63999C15.18 8.09999 16.42 9.30999 17.93 9.30999C18.88 9.31999 20.2 9.31999 21.33 9.31999C21.9 9.31999 22.2 8.64999 21.8 8.24999C20.36 6.79999 17.78 4.18999 16.3 2.70999Z" fill="#182521"/>
<path id="Vector_3" d="M12.03 12.97L10.03 10.97C10.02 10.96 10.01 10.96 10.01 10.95C9.95 10.89 9.87 10.84 9.79 10.8C9.78 10.8 9.78 10.8 9.77 10.8C9.69 10.77 9.61 10.76 9.53 10.75C9.5 10.75 9.48 10.75 9.45 10.75C9.39 10.75 9.32 10.77 9.26 10.79C9.23 10.8 9.21 10.81 9.19 10.82C9.11 10.86 9.03 10.9 8.97 10.97L6.97 12.97C6.68 13.26 6.68 13.74 6.97 14.03C7.26 14.32 7.74 14.32 8.03 14.03L8.75 13.31V17.5C8.75 17.91 9.09 18.25 9.5 18.25C9.91 18.25 10.25 17.91 10.25 17.5V13.31L10.97 14.03C11.12 14.18 11.31 14.25 11.5 14.25C11.69 14.25 11.88 14.18 12.03 14.03C12.32 13.74 12.32 13.26 12.03 12.97Z" fill="#182521"/>
</g>
</g>
</svg>
