<svg width="20" height="20" viewBox="0 0 20 20" fill="none" xmlns="http://www.w3.org/2000/svg">
<path d="M18.3338 11.5833V13.4917C18.3338 16.525 16.5255 18.3333 13.4921 18.3333H6.50879C4.38379 18.3333 2.85046 17.4417 2.13379 15.8583L2.22546 15.7917L6.32546 13.0417C6.99212 12.5917 7.93379 12.6417 8.52546 13.1583L8.80879 13.3917C9.45879 13.95 10.5088 13.95 11.1588 13.3917L14.6255 10.4167C15.2755 9.85834 16.3255 9.85834 16.9755 10.4167L18.3338 11.5833Z" fill="#193F34"/>
<path opacity="0.4" d="M17.4753 6.66663H15.0253C13.967 6.66663 13.3337 6.03329 13.3337 4.97496V2.52496C13.3337 2.19163 13.4003 1.90829 13.517 1.66663C13.5087 1.66663 13.5003 1.66663 13.492 1.66663H6.50866C3.47533 1.66663 1.66699 3.47496 1.66699 6.50829V13.4916C1.66699 14.4 1.82533 15.1916 2.13366 15.8583L2.22533 15.7916L6.32533 13.0416C6.99199 12.5916 7.93366 12.6416 8.52533 13.1583L8.80866 13.3916C9.45866 13.95 10.5087 13.95 11.1587 13.3916L14.6253 10.4166C15.2753 9.85829 16.3253 9.85829 16.9753 10.4166L18.3337 11.5833V6.50829C18.3337 6.49996 18.3337 6.49163 18.3337 6.48329C18.092 6.59996 17.8087 6.66663 17.4753 6.66663Z" fill="#193F34"/>
<path d="M7.49994 8.65002C8.5953 8.65002 9.48327 7.76205 9.48327 6.66668C9.48327 5.57132 8.5953 4.68335 7.49994 4.68335C6.40457 4.68335 5.5166 5.57132 5.5166 6.66668C5.5166 7.76205 6.40457 8.65002 7.49994 8.65002Z" fill="#193F34"/>
<path d="M17.4747 0.833374H15.0247C13.9663 0.833374 13.333 1.46671 13.333 2.52504V4.97504C13.333 6.03337 13.9663 6.66671 15.0247 6.66671H17.4747C18.533 6.66671 19.1663 6.03337 19.1663 4.97504V2.52504C19.1663 1.46671 18.533 0.833374 17.4747 0.833374ZM18.258 4.10837C18.1747 4.19171 18.0497 4.25004 17.9163 4.25837H16.7413L16.7497 5.41671C16.7413 5.55837 16.6913 5.67504 16.5913 5.77504C16.508 5.85837 16.383 5.91671 16.2497 5.91671C15.9747 5.91671 15.7497 5.69171 15.7497 5.41671V4.25004L14.583 4.25837C14.308 4.25837 14.083 4.02504 14.083 3.75004C14.083 3.47504 14.308 3.25004 14.583 3.25004L15.7497 3.25837V2.09171C15.7497 1.81671 15.9747 1.58337 16.2497 1.58337C16.5247 1.58337 16.7497 1.81671 16.7497 2.09171L16.7413 3.25004H17.9163C18.1913 3.25004 18.4163 3.47504 18.4163 3.75004C18.408 3.89171 18.3497 4.00837 18.258 4.10837Z" fill="#193F34"/>
</svg>
