<svg width="24" height="24" viewBox="0 0 24 24" fill="none" xmlns="http://www.w3.org/2000/svg">
<path opacity="0.4" d="M16.19 2H7.81C4.17 2 2 4.17 2 7.81V16.18C2 19.83 4.17 22 7.81 22H16.18C19.82 22 21.99 19.83 21.99 16.19V7.81C22 4.17 19.83 2 16.19 2Z" fill="#193F34"/>
<path d="M6.88 18.9C6.47 18.9 6.13 18.56 6.13 18.15V16.08C6.13 15.67 6.47 15.33 6.88 15.33C7.29 15.33 7.63 15.67 7.63 16.08V18.15C7.63 18.57 7.29 18.9 6.88 18.9Z" fill="#193F34"/>
<path d="M12 18.9C11.59 18.9 11.25 18.56 11.25 18.15V14C11.25 13.59 11.59 13.25 12 13.25C12.41 13.25 12.75 13.59 12.75 14V18.15C12.75 18.57 12.41 18.9 12 18.9Z" fill="#193F34"/>
<path d="M17.12 18.9C16.71 18.9 16.37 18.56 16.37 18.15V11.93C16.37 11.52 16.71 11.18 17.12 11.18C17.53 11.18 17.87 11.52 17.87 11.93V18.15C17.87 18.57 17.54 18.9 17.12 18.9Z" fill="#193F34"/>
<path d="M17.87 5.81998C17.87 5.76998 17.85 5.70998 17.84 5.65998C17.83 5.61998 17.82 5.56998 17.81 5.52998C17.79 5.48998 17.76 5.45998 17.74 5.41998C17.71 5.37998 17.68 5.32998 17.64 5.29998C17.63 5.28998 17.63 5.27998 17.62 5.27998C17.59 5.25998 17.56 5.24998 17.53 5.22998C17.49 5.19998 17.44 5.16998 17.39 5.14998C17.34 5.12998 17.29 5.12998 17.24 5.11998C17.2 5.10998 17.17 5.09998 17.13 5.09998H14.2C13.79 5.09998 13.45 5.43998 13.45 5.84998C13.45 6.25998 13.79 6.59998 14.2 6.59998H15.45C13.07 9.09998 10.07 10.86 6.69998 11.71C6.29998 11.81 6.04998 12.22 6.14998 12.62C6.22998 12.96 6.53998 13.19 6.87998 13.19C6.93998 13.19 6.99998 13.18 7.05998 13.17C10.63 12.28 13.82 10.43 16.37 7.80998V8.77998C16.37 9.18998 16.71 9.52998 17.12 9.52998C17.53 9.52998 17.87 9.18998 17.87 8.77998V5.84998C17.87 5.83998 17.87 5.82998 17.87 5.81998Z" fill="#193F34"/>
</svg>
