<svg width="24" height="25" viewBox="0 0 24 25" fill="none" xmlns="http://www.w3.org/2000/svg">
<path opacity="0.4" d="M14 5.5V10.5H13C11.35 10.5 10 11.85 10 13.5V14.5H5C3.34 14.5 2 13.16 2 11.5V5.5C2 3.84 3.34 2.5 5 2.5H11C12.66 2.5 14 3.84 14 5.5Z" fill="#0F2B23"/>
<path d="M5.2 7.13002C4.97 7.13002 4.73 7.02001 4.59 6.81001C4.35 6.47001 4.43 6.00002 4.77 5.76002C5.55 5.21002 6.6 5.2 7.39 5.74C7.73 5.97 7.82 6.44004 7.59 6.78004C7.36 7.12004 6.89 7.20999 6.55 6.97999C6.28 6.79999 5.92001 6.8 5.65001 6.99C5.50001 7.09 5.35 7.13002 5.2 7.13002Z" fill="#0F2B23"/>
<path d="M9.2 7.13002C8.97 7.13002 8.73 7.02001 8.59 6.81001C8.35 6.47001 8.43 6.00002 8.77 5.76002C9.55 5.21002 10.6 5.2 11.39 5.74C11.73 5.97 11.82 6.44004 11.59 6.78004C11.36 7.12004 10.89 7.20999 10.55 6.97999C10.28 6.79999 9.92001 6.8 9.65001 6.99C9.50001 7.09 9.35 7.13002 9.2 7.13002Z" fill="#0F2B23"/>
<path d="M8.16005 12.67H5.84005C5.13005 12.67 4.55005 12.09 4.55005 11.38C4.55005 9.48 6.10005 7.92999 8.00005 7.92999C8.78005 7.92999 9.55005 8.2 10.16 8.69C10.48 8.95 10.54 9.41999 10.28 9.73999C10.02 10.06 9.55005 10.12 9.23005 9.85999C8.88005 9.57999 8.46005 9.42999 8.01005 9.42999C7.01005 9.42999 6.18005 10.19 6.07005 11.17H8.17005C8.58005 11.17 8.92005 11.51 8.92005 11.92C8.92005 12.33 8.57005 12.67 8.16005 12.67Z" fill="#0F2B23"/>
<path d="M18.22 17.18C18.15 17.1 18.05 17.06 17.94 17.06H14.06C13.95 17.06 13.85 17.1 13.78 17.18C13.71 17.26 13.67 17.37 13.69 17.47C13.82 18.65 14.81 19.55 16 19.55C17.19 19.55 18.18 18.66 18.31 17.47C18.32 17.36 18.29 17.26 18.22 17.18Z" fill="#0F2B23"/>
<path d="M19 10.5H13C11.35 10.5 10 11.85 10 13.5V19.5C10 21.15 11.35 22.5 13 22.5H19C20.65 22.5 22 21.15 22 19.5V13.5C22 11.85 20.65 10.5 19 10.5ZM12.59 13.67C12.83 13.33 13.3 13.25 13.64 13.49C13.91 13.68 14.27 13.68 14.54 13.5C14.88 13.26 15.35 13.35 15.58 13.7C15.81 14.04 15.73 14.51 15.38 14.74C14.99 15 14.54 15.14 14.09 15.14C13.62 15.14 13.16 15 12.77 14.72C12.43 14.47 12.35 14 12.59 13.67ZM16 20.67C14.1 20.67 12.55 19.12 12.55 17.22C12.55 16.51 13.13 15.93 13.84 15.93H18.16C18.87 15.93 19.45 16.51 19.45 17.22C19.45 19.12 17.9 20.67 16 20.67ZM19.38 14.73C18.99 14.99 18.54 15.13 18.09 15.13C17.62 15.13 17.16 14.99 16.77 14.71C16.43 14.47 16.35 14 16.59 13.66C16.83 13.32 17.3 13.24 17.64 13.48C17.91 13.67 18.27 13.67 18.54 13.49C18.88 13.25 19.35 13.34 19.58 13.69C19.81 14.04 19.72 14.5 19.38 14.73Z" fill="#0F2B23"/>
</svg>
