<svg width="16" height="16" viewBox="0 0 16 16" fill="none" xmlns="http://www.w3.org/2000/svg">
<path d="M11.1667 2.37337V1.33337C11.1667 1.06004 10.94 0.833374 10.6667 0.833374C10.3933 0.833374 10.1667 1.06004 10.1667 1.33337V2.33337H5.83332V1.33337C5.83332 1.06004 5.60666 0.833374 5.33332 0.833374C5.05999 0.833374 4.83332 1.06004 4.83332 1.33337V2.37337C3.03332 2.54004 2.15999 3.61337 2.02666 5.20671C2.01332 5.40004 2.17332 5.56004 2.35999 5.56004H13.64C13.8333 5.56004 13.9933 5.39337 13.9733 5.20671C13.84 3.61337 12.9667 2.54004 11.1667 2.37337Z" fill="#193F34"/>
<path opacity="0.4" d="M13.3333 6.56006C13.7 6.56006 14 6.86006 14 7.22673V11.3334C14 13.3334 13 14.6667 10.6667 14.6667H5.33333C3 14.6667 2 13.3334 2 11.3334V7.22673C2 6.86006 2.3 6.56006 2.66667 6.56006H13.3333Z" fill="#193F34"/>
<path d="M5.66667 9.99996C5.49333 9.99996 5.32 9.92662 5.19333 9.80662C5.07333 9.67995 5 9.50662 5 9.33329C5 9.15996 5.07333 8.98663 5.19333 8.85996C5.38 8.6733 5.67333 8.61328 5.92 8.71995C6.00667 8.75328 6.08 8.79996 6.14 8.85996C6.26 8.98663 6.33333 9.15996 6.33333 9.33329C6.33333 9.50662 6.26 9.67995 6.14 9.80662C6.01333 9.92662 5.84 9.99996 5.66667 9.99996Z" fill="#193F34"/>
<path d="M7.99992 9.99996C7.82659 9.99996 7.65325 9.92662 7.52659 9.80662C7.40659 9.67995 7.33325 9.50662 7.33325 9.33329C7.33325 9.15996 7.40659 8.98663 7.52659 8.85996C7.58659 8.79996 7.65992 8.75328 7.74658 8.71995C7.99325 8.61328 8.28658 8.6733 8.47325 8.85996C8.59325 8.98663 8.66659 9.15996 8.66659 9.33329C8.66659 9.50662 8.59325 9.67995 8.47325 9.80662C8.43992 9.83328 8.40659 9.85995 8.37325 9.88661C8.33325 9.91328 8.29325 9.9333 8.25325 9.94663C8.21325 9.96663 8.17325 9.97996 8.13325 9.98663C8.08659 9.9933 8.04659 9.99996 7.99992 9.99996Z" fill="#193F34"/>
<path d="M10.3334 9.99997C10.1601 9.99997 9.98675 9.92663 9.86008 9.80663C9.74008 9.67996 9.66675 9.50663 9.66675 9.3333C9.66675 9.15997 9.74008 8.98664 9.86008 8.85997C9.92675 8.79997 9.99341 8.75329 10.0801 8.71996C10.2001 8.66662 10.3334 8.65329 10.4667 8.67996C10.5067 8.68663 10.5467 8.69996 10.5867 8.71996C10.6267 8.73329 10.6667 8.75331 10.7067 8.77998C10.7401 8.80664 10.7734 8.83331 10.8067 8.85997C10.9267 8.98664 11.0001 9.15997 11.0001 9.3333C11.0001 9.50663 10.9267 9.67996 10.8067 9.80663C10.7734 9.83329 10.7401 9.85996 10.7067 9.88662C10.6667 9.91329 10.6267 9.93331 10.5867 9.94664C10.5467 9.96664 10.5067 9.97997 10.4667 9.98664C10.4201 9.99331 10.3734 9.99997 10.3334 9.99997Z" fill="#193F34"/>
<path d="M5.66667 12.3333C5.58 12.3333 5.49333 12.3134 5.41333 12.28C5.32667 12.2467 5.26 12.2 5.19333 12.14C5.07333 12.0133 5 11.84 5 11.6667C5 11.4933 5.07333 11.32 5.19333 11.1933C5.26 11.1333 5.32667 11.0867 5.41333 11.0533C5.53333 11 5.66667 10.9867 5.8 11.0133C5.84 11.02 5.88 11.0333 5.92 11.0533C5.96 11.0667 6 11.0867 6.04 11.1134C6.07333 11.14 6.10667 11.1667 6.14 11.1933C6.26 11.32 6.33333 11.4933 6.33333 11.6667C6.33333 11.84 6.26 12.0133 6.14 12.14C6.10667 12.1667 6.07333 12.2 6.04 12.22C6 12.2467 5.96 12.2667 5.92 12.28C5.88 12.3 5.84 12.3133 5.8 12.32C5.75333 12.3267 5.71333 12.3333 5.66667 12.3333Z" fill="#193F34"/>
<path d="M7.99992 12.3333C7.82659 12.3333 7.65325 12.26 7.52659 12.14C7.40659 12.0133 7.33325 11.84 7.33325 11.6666C7.33325 11.4933 7.40659 11.32 7.52659 11.1933C7.77325 10.9466 8.22658 10.9466 8.47325 11.1933C8.59325 11.32 8.66659 11.4933 8.66659 11.6666C8.66659 11.84 8.59325 12.0133 8.47325 12.14C8.34658 12.26 8.17325 12.3333 7.99992 12.3333Z" fill="#193F34"/>
<path d="M10.3334 12.3333C10.1601 12.3333 9.98675 12.26 9.86008 12.14C9.74008 12.0133 9.66675 11.84 9.66675 11.6666C9.66675 11.4933 9.74008 11.32 9.86008 11.1933C10.1067 10.9466 10.5601 10.9466 10.8067 11.1933C10.9267 11.32 11.0001 11.4933 11.0001 11.6666C11.0001 11.84 10.9267 12.0133 10.8067 12.14C10.6801 12.26 10.5067 12.3333 10.3334 12.3333Z" fill="#193F34"/>
</svg>
