<svg width="24" height="24" viewBox="0 0 24 24" fill="none" xmlns="http://www.w3.org/2000/svg">
<path d="M4.66625 22.9997C3.19375 22.9997 2 21.9108 2 20.5664V10.7865C2 10.0477 2.36875 9.34768 3 8.88658L10.3337 3.53333C10.8023 3.18842 11.3916 2.99969 12 2.99969C12.6084 2.99969 13.1977 3.18842 13.6663 3.53333L20.9987 8.88658C21.6312 9.34768 22 10.0477 22 10.7865V20.5664C22 21.9108 20.8063 22.9997 19.3338 22.9997H4.66625Z" stroke="#193F34" stroke-width="1.5" stroke-linecap="round" stroke-linejoin="round"/>
<path d="M8.875 22.9997V16.8887C8.875 16.2993 9.13839 15.7341 9.60723 15.3174C10.0761 14.9006 10.712 14.6665 11.375 14.6665H12.625C13.288 14.6665 13.9239 14.9006 14.3928 15.3174C14.8616 15.7341 15.125 16.2993 15.125 16.8887V22.9997" fill="#193F34"/>
<path d="M8.875 22.9997V16.8887C8.875 16.2993 9.13839 15.7341 9.60723 15.3174C10.0761 14.9006 10.712 14.6665 11.375 14.6665H12.625C13.288 14.6665 13.9239 14.9006 14.3928 15.3174C14.8616 15.7341 15.125 16.2993 15.125 16.8887V22.9997" stroke="#193F34" stroke-width="1.5" stroke-linecap="round" stroke-linejoin="round"/>
</svg>
