<svg width="12" height="12" viewBox="0 0 12 12" fill="none" xmlns="http://www.w3.org/2000/svg">
<path opacity="0.4" d="M10.54 4.29002V7.71C10.54 8.27 10.24 8.79002 9.75497 9.07502L6.78497 10.79C6.29997 11.07 5.69996 11.07 5.20996 10.79L2.23996 9.07502C1.75496 8.79502 1.45496 8.275 1.45496 7.71V4.29002C1.45496 3.73002 1.75496 3.21 2.23996 2.925L5.20996 1.21C5.69496 0.93 6.29497 0.93 6.78497 1.21L9.75497 2.925C10.24 3.21 10.54 3.72502 10.54 4.29002Z" fill="#193F34"/>
<path d="M6 6.875C5.795 6.875 5.625 6.705 5.625 6.5V3.875C5.625 3.67 5.795 3.5 6 3.5C6.205 3.5 6.375 3.67 6.375 3.875V6.5C6.375 6.705 6.205 6.875 6 6.875Z" fill="#193F34"/>
<path d="M6 8.62499C5.935 8.62499 5.87 8.60998 5.81 8.58498C5.745 8.55998 5.69499 8.525 5.64499 8.48C5.59999 8.43 5.565 8.37499 5.535 8.31499C5.51 8.25499 5.5 8.18999 5.5 8.12499C5.5 7.99499 5.54999 7.86498 5.64499 7.76998C5.69499 7.72498 5.745 7.69 5.81 7.665C5.995 7.585 6.21501 7.62998 6.35501 7.76998C6.40001 7.81998 6.43499 7.86999 6.45999 7.93499C6.48499 7.99499 6.5 8.05999 6.5 8.12499C6.5 8.18999 6.48499 8.25499 6.45999 8.31499C6.43499 8.37499 6.40001 8.43 6.35501 8.48C6.26001 8.575 6.135 8.62499 6 8.62499Z" fill="#193F34"/>
</svg>
