<svg width="20" height="20" viewBox="0 0 20 20" fill="none" xmlns="http://www.w3.org/2000/svg">
<g id="vuesax/bulk/info-circle">
<g id="info-circle">
<path id="Vector" opacity="0.4" d="M9.99935 18.3334C14.6017 18.3334 18.3327 14.6025 18.3327 10.0001C18.3327 5.39771 14.6017 1.66675 9.99935 1.66675C5.39698 1.66675 1.66602 5.39771 1.66602 10.0001C1.66602 14.6025 5.39698 18.3334 9.99935 18.3334Z" fill="#767F7C"/>
<path id="Vector_2" d="M10 11.4584C10.3417 11.4584 10.625 11.1751 10.625 10.8334V6.66675C10.625 6.32508 10.3417 6.04175 10 6.04175C9.65833 6.04175 9.375 6.32508 9.375 6.66675V10.8334C9.375 11.1751 9.65833 11.4584 10 11.4584Z" fill="#767F7C"/>
<path id="Vector_3" d="M10.766 13.0167C10.7243 12.9167 10.666 12.825 10.591 12.7417C10.5077 12.6667 10.416 12.6083 10.316 12.5667C10.116 12.4833 9.88268 12.4833 9.68268 12.5667C9.58268 12.6083 9.49102 12.6667 9.40768 12.7417C9.33268 12.825 9.27435 12.9167 9.23268 13.0167C9.19102 13.1167 9.16602 13.225 9.16602 13.3333C9.16602 13.4417 9.19102 13.55 9.23268 13.65C9.27435 13.7583 9.33268 13.8417 9.40768 13.925C9.49102 14 9.58268 14.0583 9.68268 14.1C9.78268 14.1417 9.89102 14.1667 9.99935 14.1667C10.1077 14.1667 10.216 14.1417 10.316 14.1C10.416 14.0583 10.5077 14 10.591 13.925C10.666 13.8417 10.7243 13.7583 10.766 13.65C10.8077 13.55 10.8327 13.4417 10.8327 13.3333C10.8327 13.225 10.8077 13.1167 10.766 13.0167Z" fill="#767F7C"/>
</g>
</g>
</svg>
