<svg width="21" height="20" viewBox="0 0 21 20" fill="none" xmlns="http://www.w3.org/2000/svg">
<g id="vuesax/linear/key">
<g id="key">
<path id="Vector" d="M16.7603 12.4417C15.0157 14.15 12.5173 14.675 10.3238 14L6.33488 17.9167C6.04694 18.2083 5.47951 18.3833 5.07299 18.325L3.22674 18.075C2.61697 17.9917 2.04954 17.425 1.95638 16.825L1.70231 15.0083C1.64303 14.6083 1.83782 14.05 2.11729 13.7667L6.09775 9.85C5.42023 7.68333 5.94531 5.225 7.68993 3.51666C10.1883 1.05833 14.245 1.05833 16.7518 3.51666C19.2587 5.975 19.2587 9.98333 16.7603 12.4417Z" stroke="white" stroke-width="1.5" stroke-miterlimit="10" stroke-linecap="round" stroke-linejoin="round"/>
<path id="Vector_2" d="M5.83521 14.575L7.78309 16.4917" stroke="white" stroke-width="1.5" stroke-miterlimit="10" stroke-linecap="round" stroke-linejoin="round"/>
<path id="Vector_3" d="M12.2801 9.16666C12.9817 9.16666 13.5505 8.60701 13.5505 7.91666C13.5505 7.2263 12.9817 6.66666 12.2801 6.66666C11.5785 6.66666 11.0098 7.2263 11.0098 7.91666C11.0098 8.60701 11.5785 9.16666 12.2801 9.16666Z" stroke="white" stroke-width="1.5" stroke-linecap="round" stroke-linejoin="round"/>
</g>
</g>
</svg>
