<svg width="24" height="25" viewBox="0 0 24 25" fill="none" xmlns="http://www.w3.org/2000/svg">
<path opacity="0.4" d="M12 22.5C17.5228 22.5 22 18.0228 22 12.5C22 6.97715 17.5228 2.5 12 2.5C6.47715 2.5 2 6.97715 2 12.5C2 18.0228 6.47715 22.5 12 22.5Z" fill="#193F34"/>
<path d="M17 16.47C15.69 16.47 14.44 15.87 13.44 14.76C14.43 13.49 15.07 11.92 15.21 10.2H16.99C17.4 10.2 17.74 9.86004 17.74 9.45004C17.74 9.04004 17.4 8.70004 16.99 8.70004H14.56C14.54 8.70004 14.52 8.69003 14.5 8.69003C14.48 8.69003 14.46 8.70004 14.44 8.70004H12.75V7.77002C12.75 7.36002 12.41 7.02002 12 7.02002C11.59 7.02002 11.25 7.36002 11.25 7.77002V8.70004H7.01001C6.60001 8.70004 6.26001 9.04004 6.26001 9.45004C6.26001 9.86004 6.60001 10.2 7.01001 10.2H12H13.7C13.33 13.72 10.47 16.47 6.98999 16.47C6.57999 16.47 6.23999 16.81 6.23999 17.22C6.23999 17.63 6.57999 17.97 6.98999 17.97C9.05999 17.97 10.95 17.17 12.4 15.86C13.67 17.22 15.28 17.97 16.99 17.97C17.4 17.97 17.74 17.63 17.74 17.22C17.74 16.81 17.41 16.47 17 16.47Z" fill="#193F34"/>
</svg>
