<svg width="20" height="20" viewBox="0 0 20 20" fill="none" xmlns="http://www.w3.org/2000/svg">
<g id="vuesax/bulk/lock">
<g id="lock">
<path id="Vector" opacity="0.4" d="M9.99994 14.4584C10.7501 14.4584 11.3583 13.8502 11.3583 13.1C11.3583 12.3498 10.7501 11.7417 9.99994 11.7417C9.24975 11.7417 8.6416 12.3498 8.6416 13.1C8.6416 13.8502 9.24975 14.4584 9.99994 14.4584Z" fill="#193F34"/>
<path id="Vector_2" d="M13.8753 7.8667H6.12533C2.70866 7.8667 1.66699 8.90837 1.66699 12.325V13.875C1.66699 17.2917 2.70866 18.3334 6.12533 18.3334H13.8753C17.292 18.3334 18.3337 17.2917 18.3337 13.875V12.325C18.3337 8.90837 17.292 7.8667 13.8753 7.8667ZM10.0003 15.6167C8.60866 15.6167 7.48366 14.4834 7.48366 13.1C7.48366 11.7167 8.60866 10.5834 10.0003 10.5834C11.392 10.5834 12.517 11.7167 12.517 13.1C12.517 14.4834 11.392 15.6167 10.0003 15.6167Z" fill="#193F34"/>
<path id="Vector_3" opacity="0.4" d="M5.93327 7.87496V6.89996C5.93327 4.45829 6.62494 2.83329 9.99994 2.83329C13.3749 2.83329 14.0666 4.45829 14.0666 6.89996V7.87496C14.4916 7.88329 14.8749 7.89996 15.2333 7.94996V6.89996C15.2333 4.64996 14.6916 1.66663 9.99994 1.66663C5.30827 1.66663 4.7666 4.64996 4.7666 6.89996V7.94163C5.1166 7.89996 5.50827 7.87496 5.93327 7.87496Z" fill="#193F34"/>
</g>
</g>
</svg>
