<svg width="28" height="28" viewBox="0 0 28 28" fill="none" xmlns="http://www.w3.org/2000/svg">
<g id="vuesax/bulk/map">
<g id="map">
<path id="Vector" opacity="0.4" d="M23.1932 24.43C22.0849 25.2466 20.6265 25.6666 18.8882 25.6666H9.11153C8.83153 25.6666 8.55154 25.6549 8.2832 25.6199L16.3332 17.5699L23.1932 24.43Z" fill="#3B4542"/>
<path id="Vector_2" opacity="0.4" d="M25.667 9.11166V18.8883C25.667 20.6267 25.247 22.085 24.4303 23.1933L17.5703 16.3333L25.6203 8.28333C25.6553 8.55166 25.667 8.83166 25.667 9.11166Z" fill="#3B4542"/>
<path id="Vector_3" opacity="0.4" d="M17.5697 16.3334L24.4297 23.1934C24.0913 23.6834 23.683 24.0917 23.193 24.43L16.333 17.57L8.28301 25.62C7.53635 25.5734 6.85968 25.4217 6.24135 25.1884C3.74468 24.2784 2.33301 22.0617 2.33301 18.8884V9.1117C2.33301 4.86504 4.86467 2.33337 9.11134 2.33337H18.888C22.0613 2.33337 24.278 3.74504 25.188 6.24171C25.4213 6.86004 25.573 7.53671 25.6197 8.28337L17.5697 16.3334Z" fill="#3B4542"/>
<path id="Vector_4" d="M17.5695 16.3334L24.4295 23.1934C24.0912 23.6834 23.6829 24.0917 23.1929 24.43L16.3329 17.57L8.28288 25.62C7.53621 25.5734 6.85954 25.4217 6.24121 25.1884L6.69619 24.7334L25.1879 6.2417C25.4212 6.86003 25.5729 7.5367 25.6195 8.28337L17.5695 16.3334Z" fill="#3B4542"/>
<path id="Vector_5" d="M14.2803 9.25166C13.8369 7.32666 12.1336 6.46333 10.6403 6.45166C9.14693 6.45166 7.4436 7.31499 7.00027 9.23999C6.51027 11.375 7.81693 13.16 8.99526 14.28C9.46193 14.7233 10.0453 14.9333 10.6403 14.9333C11.2353 14.9333 11.8186 14.7117 12.2853 14.28C13.4636 13.16 14.7703 11.375 14.2803 9.25166ZM10.6753 11.0717C10.0336 11.0717 9.5086 10.5467 9.5086 9.90499C9.5086 9.26333 10.0219 8.73833 10.6753 8.73833H10.6869C11.3286 8.73833 11.8536 9.26333 11.8536 9.90499C11.8536 10.5467 11.3169 11.0717 10.6753 11.0717Z" fill="#3B4542"/>
</g>
</g>
</svg>
