<svg width="16" height="16" viewBox="0 0 16 16" fill="none" xmlns="http://www.w3.org/2000/svg">
<g id="vuesax/linear/message-text">
<g id="vuesax/linear/message-text_2">
<g id="message-text">
<path id="Vector" d="M5.66732 12.6654H5.33398C2.66732 12.6654 1.33398 11.9987 1.33398 8.66536V5.33203C1.33398 2.66536 2.66732 1.33203 5.33398 1.33203H10.6673C13.334 1.33203 14.6673 2.66536 14.6673 5.33203V8.66536C14.6673 11.332 13.334 12.6654 10.6673 12.6654H10.334C10.1273 12.6654 9.92732 12.7654 9.80065 12.932L8.80065 14.2654C8.36065 14.852 7.64065 14.852 7.20065 14.2654L6.20065 12.932C6.09398 12.7854 5.84732 12.6654 5.66732 12.6654Z" stroke="#193F34" stroke-width="1.5" stroke-miterlimit="10" stroke-linecap="round" stroke-linejoin="round"/>
<path id="Vector_2" d="M4.66602 5.33203H11.3327" stroke="#193F34" stroke-width="1.5" stroke-linecap="round" stroke-linejoin="round"/>
<path id="Vector_3" d="M4.66602 8.66797H8.66602" stroke="#193F34" stroke-width="1.5" stroke-linecap="round" stroke-linejoin="round"/>
</g>
</g>
</g>
</svg>
