<svg width="148" height="148" viewBox="0 0 148 148" fill="none" xmlns="http://www.w3.org/2000/svg">
<g id="vuesax/bulk/message-remove">
<g id="message-remove">
<path id="Vector" opacity="0.4" d="M135.666 45.8187V82.8187C135.666 92.0687 132.583 99.777 127.156 105.204C121.791 110.569 114.083 113.652 104.833 113.652V126.787C104.833 131.72 99.3448 134.681 95.2748 131.967L67.833 113.652H54.7597C55.253 111.802 55.4997 109.89 55.4997 107.917C55.4997 101.627 53.0947 95.8305 49.148 91.4522C44.708 86.3955 38.1097 83.2504 30.833 83.2504C23.9263 83.2504 17.6364 86.0872 13.1347 90.7122C12.5797 88.2455 12.333 85.5937 12.333 82.8187V45.8187C12.333 27.3187 24.6663 14.9854 43.1663 14.9854H104.833C123.333 14.9854 135.666 27.3187 135.666 45.8187Z" fill="#193F34"/>
<g id="Group">
<path id="Vector_2" d="M95.5837 69.375H52.417C49.8887 69.375 47.792 67.2783 47.792 64.75C47.792 62.2217 49.8887 60.125 52.417 60.125H95.5837C98.112 60.125 100.209 62.2217 100.209 64.75C100.209 67.2783 98.112 69.375 95.5837 69.375Z" fill="#193F34"/>
</g>
<path id="Vector_3" d="M49.1487 91.4518C44.7087 86.3951 38.1103 83.25 30.8337 83.25C17.2053 83.25 6.16699 94.2883 6.16699 107.917C6.16699 112.542 7.46191 116.92 9.74358 120.62C10.9769 122.717 12.5803 124.628 14.4303 126.231C18.747 130.178 24.482 132.583 30.8337 132.583C39.837 132.583 47.6687 127.773 51.9237 120.62C54.2054 116.92 55.5003 112.542 55.5003 107.917C55.5003 101.627 53.0953 95.8301 49.1487 91.4518ZM40.7004 117.66C39.7754 118.585 38.6037 119.017 37.432 119.017C36.2604 119.017 35.0887 118.585 34.1637 117.66L30.8954 114.392L27.5036 117.783C26.5786 118.708 25.4069 119.14 24.2353 119.14C23.0636 119.14 21.892 118.708 20.967 117.783C19.1786 115.995 19.1786 113.035 20.967 111.247L24.3587 107.855L21.0904 104.587C19.3021 102.798 19.3021 99.8385 21.0904 98.0501C22.8787 96.2618 25.8387 96.2618 27.6271 98.0501L30.8954 101.318L33.9787 98.235C35.7671 96.4466 38.727 96.4466 40.5154 98.235C42.3037 100.023 42.3037 102.983 40.5154 104.772L37.432 107.855L40.7004 111.123C42.4887 112.912 42.4887 115.81 40.7004 117.66Z" fill="#193F34"/>
</g>
</g>
</svg>
