<svg width="15" height="18" viewBox="0 0 15 18" fill="none" xmlns="http://www.w3.org/2000/svg">
<g id="vuesax/linear/mobile">
<g id="mobile">
<path id="Vector" d="M13.8 5V13C13.8 16.2 13 17 9.8 17H5C1.8 17 1 16.2 1 13V5C1 1.8 1.8 1 5 1H9.8C13 1 13.8 1.8 13.8 5Z" stroke="#292D32" stroke-linecap="round" stroke-linejoin="round"/>
<path id="Vector_2" d="M8.9998 3.80078H5.7998" stroke="#292D32" stroke-linecap="round" stroke-linejoin="round"/>
<path id="Vector_3" d="M7.40016 14.6792C8.08499 14.6792 8.64016 14.1241 8.64016 13.4392C8.64016 12.7544 8.08499 12.1992 7.40016 12.1992C6.71532 12.1992 6.16016 12.7544 6.16016 13.4392C6.16016 14.1241 6.71532 14.6792 7.40016 14.6792Z" stroke="#292D32" stroke-linecap="round" stroke-linejoin="round"/>
</g>
</g>
</svg>
