<svg width="16" height="16" viewBox="0 0 16 16" fill="none" xmlns="http://www.w3.org/2000/svg">
<path opacity="0.4" d="M10.827 1.3335H5.17366C3.33366 1.3335 2.66699 2.00016 2.66699 3.8735V12.1268C2.66699 14.0002 3.33366 14.6668 5.17366 14.6668H10.8203C12.667 14.6668 13.3337 14.0002 13.3337 12.1268V3.8735C13.3337 2.00016 12.667 1.3335 10.827 1.3335Z" fill="#193F34"/>
<path d="M9.33366 4.1665H6.66699C6.39366 4.1665 6.16699 3.93984 6.16699 3.6665C6.16699 3.39317 6.39366 3.1665 6.66699 3.1665H9.33366C9.60699 3.1665 9.83366 3.39317 9.83366 3.6665C9.83366 3.93984 9.60699 4.1665 9.33366 4.1665Z" fill="#193F34"/>
<path d="M7.99967 12.8665C8.64401 12.8665 9.16634 12.3442 9.16634 11.6999C9.16634 11.0555 8.64401 10.5332 7.99967 10.5332C7.35534 10.5332 6.83301 11.0555 6.83301 11.6999C6.83301 12.3442 7.35534 12.8665 7.99967 12.8665Z" fill="#193F34"/>
</svg>
