<svg width="24" height="24" viewBox="0 0 24 24" fill="none" xmlns="http://www.w3.org/2000/svg">
<g id="vuesax/bulk/more">
<g id="more">
<path id="Vector" d="M10.6899 12.0001C10.6899 12.7201 11.2799 13.3101 11.9999 13.3101C12.7199 13.3101 13.3099 12.7201 13.3099 12.0001C13.3099 11.2801 12.7199 10.6901 11.9999 10.6901C11.2799 10.6901 10.6899 11.2801 10.6899 12.0001Z" fill="#193F34"/>
<path id="Vector_2" d="M10.6899 17.0001C10.6899 17.7201 11.2799 18.3101 11.9999 18.3101C12.7199 18.3101 13.3099 17.7201 13.3099 17.0001C13.3099 16.2801 12.7199 15.6901 11.9999 15.6901C11.2799 15.6901 10.6899 16.2801 10.6899 17.0001Z" fill="#193F34"/>
<path id="Vector_3" d="M10.6899 7.00006C10.6899 7.72006 11.2799 8.31006 11.9999 8.31006C12.7199 8.31006 13.3099 7.72006 13.3099 7.00006C13.3099 6.28006 12.7199 5.69006 11.9999 5.69006C11.2799 5.69006 10.6899 6.28006 10.6899 7.00006Z" fill="#193F34"/>
</g>
</g>
</svg>
