<svg width="12" height="12" viewBox="0 0 12 12" fill="none" xmlns="http://www.w3.org/2000/svg">
<path d="M6 11C8.76142 11 11 8.76142 11 6C11 3.23858 8.76142 1 6 1C3.23858 1 1 3.23858 1 6C1 8.76142 3.23858 11 6 11Z" fill="#0F2B23"/>
<path fill-rule="evenodd" clip-rule="evenodd" d="M3.125 4.83988V6.23988C3.125 7.00988 3.75 7.62989 4.52 7.62489L6.36 7.60989C6.615 7.60989 6.82001 7.39989 6.82001 7.14989V5.76488C6.82001 4.99988 6.2 4.37988 5.435 4.37988H3.59C3.33 4.37988 3.125 4.58488 3.125 4.83988Z" fill="white"/>
<path fill-rule="evenodd" clip-rule="evenodd" d="M8.875 5.00982V6.99981C8.875 7.21481 8.635 7.34481 8.455 7.22481L7.495 6.58481C7.42 6.53481 7.375 6.44982 7.375 6.35982V5.64982C7.375 5.55982 7.42 5.47482 7.495 5.42482L8.455 4.78482C8.635 4.66482 8.875 4.79482 8.875 5.00982Z" fill="white"/>
</svg>
