<svg width="21" height="20" viewBox="0 0 21 20" fill="none" xmlns="http://www.w3.org/2000/svg">
<g id="vuesax/linear/percentage-square">
<path id="Vector" d="M7.62219 1.66666H12.7036C16.9381 1.66666 18.632 3.33332 18.632 7.49999V12.5C18.632 16.6667 16.9381 18.3333 12.7036 18.3333H7.62219C3.38766 18.3333 1.69385 16.6667 1.69385 12.5V7.49999C1.69385 3.33332 3.38766 1.66666 7.62219 1.66666Z" stroke="white" stroke-width="1.5" stroke-linecap="round" stroke-linejoin="round"/>
<path id="Vector_2" d="M7.25806 12.725L12.7968 7.27502" stroke="white" stroke-width="1.5" stroke-linecap="round" stroke-linejoin="round"/>
<path id="Vector_3" d="M7.60518 8.64167C8.18049 8.64167 8.64686 8.18278 8.64686 7.61668C8.64686 7.05059 8.18049 6.59167 7.60518 6.59167C7.02987 6.59167 6.56348 7.05059 6.56348 7.61668C6.56348 8.18278 7.02987 8.64167 7.60518 8.64167Z" stroke="white" stroke-width="1.5" stroke-linecap="round" stroke-linejoin="round"/>
<path id="Vector_4" d="M13.144 13.4083C13.7193 13.4083 14.1857 12.9494 14.1857 12.3833C14.1857 11.8172 13.7193 11.3583 13.144 11.3583C12.5687 11.3583 12.1023 11.8172 12.1023 12.3833C12.1023 12.9494 12.5687 13.4083 13.144 13.4083Z" stroke="white" stroke-width="1.5" stroke-linecap="round" stroke-linejoin="round"/>
</g>
</svg>
