<svg width="24" height="24" viewBox="0 0 24 24" fill="none" xmlns="http://www.w3.org/2000/svg">
<path opacity="0.4" d="M16.19 2H7.81C4.17 2 2 4.17 2 7.81V16.18C2 19.83 4.17 22 7.81 22H16.18C19.82 22 21.99 19.83 21.99 16.19V7.81C22 4.17 19.83 2 16.19 2Z" fill="#193F34"/>
<path d="M6.754 8.448C7.252 8.448 7.678 8.532 8.032 8.7C8.386 8.868 8.656 9.108 8.842 9.42C9.034 9.732 9.13 10.11 9.13 10.554C9.13 10.812 9.088 11.07 9.004 11.328C8.926 11.586 8.8 11.82 8.626 12.03C8.458 12.24 8.23 12.411 7.942 12.543C7.66 12.669 7.312 12.732 6.898 12.732H5.953V15H4.9V8.448H6.754ZM6.898 11.715C7.126 11.715 7.318 11.676 7.474 11.598C7.63 11.52 7.75 11.421 7.834 11.301C7.924 11.181 7.987 11.058 8.023 10.932C8.065 10.8 8.086 10.683 8.086 10.581C8.086 10.473 8.068 10.356 8.032 10.23C7.996 10.098 7.936 9.975 7.852 9.861C7.768 9.741 7.651 9.645 7.501 9.573C7.351 9.495 7.159 9.456 6.925 9.456H5.953V11.715H6.898ZM10.402 8.448H11.455V15H10.402V8.448ZM19.0184 15.234L13.9874 10.356L14.2934 10.482L14.3204 15H13.2584V8.223H13.3034L18.2624 13.101L18.0194 13.029L18.0014 8.448H19.0454V15.234H19.0184Z" fill="#193F34"/>
</svg>
