<svg width="12" height="12" viewBox="0 0 12 12" fill="none" xmlns="http://www.w3.org/2000/svg">
<path opacity="0.4" d="M5.75 10.5C8.37335 10.5 10.5 8.37335 10.5 5.75C10.5 3.12665 8.37335 1 5.75 1C3.12665 1 1 3.12665 1 5.75C1 8.37335 3.12665 10.5 5.75 10.5Z" fill="#193F34"/>
<path d="M10.65 11C10.56 11 10.47 10.965 10.405 10.9L9.47503 9.97003C9.34003 9.83503 9.34003 9.61503 9.47503 9.47503C9.61003 9.34003 9.83003 9.34003 9.97003 9.47503L10.9 10.405C11.035 10.54 11.035 10.76 10.9 10.9C10.83 10.965 10.74 11 10.65 11Z" fill="#193F34"/>
</svg>
