<svg width="41" height="40" viewBox="0 0 41 40" fill="none" xmlns="http://www.w3.org/2000/svg">
<g id="vuesax/bulk/route-square">
<g id="route-square">
<path id="Vector" d="M27.2315 3.33301H13.2815C7.19821 3.33301 3.58154 6.94967 3.58154 13.0163V26.9663C3.58154 33.033 7.19821 36.6497 13.2649 36.6497H27.2149C33.2815 36.6497 36.8982 33.033 36.8982 26.9663V13.0163C36.9149 6.94967 33.2982 3.33301 27.2315 3.33301Z" fill="#A5ACAA"/>
<g id="Group">
<path id="Vector_2" d="M29.1647 15.083L25.2647 27.6496C24.3313 30.633 20.148 30.683 19.1647 27.7163L17.998 24.2663C17.6813 23.3163 16.9313 22.5496 15.9813 22.2496L12.5147 21.083C9.56467 20.0997 9.61467 15.883 12.598 14.983L25.1647 11.0663C27.6313 10.3163 29.948 12.633 29.1647 15.083Z" fill="white"/>
</g>
</g>
</g>
</svg>
