<svg width="24" height="25" viewBox="0 0 24 25" fill="none" xmlns="http://www.w3.org/2000/svg">
<path opacity="0.4" d="M20.9101 11.62C20.9101 16.51 17.3601 21.09 12.5101 22.43C12.1801 22.52 11.8201 22.52 11.4901 22.43C6.64008 21.09 3.09009 16.51 3.09009 11.62V7.23006C3.09009 6.41006 3.7101 5.48007 4.4801 5.17007L10.0501 2.89007C11.3001 2.38007 12.7101 2.38007 13.9601 2.89007L19.5301 5.17007C20.2901 5.48007 20.9201 6.41006 20.9201 7.23006L20.9101 11.62Z" fill="#193F34"/>
<path d="M14.5 11C14.5 9.62 13.38 8.5 12 8.5C10.62 8.5 9.5 9.62 9.5 11C9.5 12.12 10.24 13.05 11.25 13.37V16C11.25 16.41 11.59 16.75 12 16.75C12.41 16.75 12.75 16.41 12.75 16V13.37C13.76 13.05 14.5 12.12 14.5 11Z" fill="#193F34"/>
</svg>
