<svg width="12" height="12" viewBox="0 0 12 12" fill="none" xmlns="http://www.w3.org/2000/svg">
<g opacity="0.78">
<path d="M7.69498 2.605L8.39997 4.015C8.49497 4.21 8.74997 4.395 8.96497 4.435L10.24 4.645C11.055 4.78 11.245 5.37 10.66 5.96L9.66497 6.955C9.49997 7.12 9.40498 7.445 9.45998 7.68L9.74497 8.91C9.96997 9.88 9.44998 10.26 8.59498 9.75L7.39997 9.04C7.18497 8.91 6.82498 8.91 6.60998 9.04L5.41497 9.75C4.55997 10.255 4.03997 9.88 4.26497 8.91L4.54998 7.68C4.60498 7.45 4.50998 7.125 4.34498 6.955L3.34998 5.96C2.76498 5.375 2.95498 4.785 3.76998 4.645L5.04497 4.435C5.25997 4.4 5.51498 4.21 5.60998 4.015L6.31498 2.605C6.68998 1.84 7.30998 1.84 7.69498 2.605Z" fill="#0F2B23"/>
<path opacity="0.4" d="M4 2.875H1C0.795 2.875 0.625 2.705 0.625 2.5C0.625 2.295 0.795 2.125 1 2.125H4C4.205 2.125 4.375 2.295 4.375 2.5C4.375 2.705 4.205 2.875 4 2.875Z" fill="#0F2B23"/>
<path opacity="0.4" d="M2.5 9.875H1C0.795 9.875 0.625 9.705 0.625 9.5C0.625 9.295 0.795 9.125 1 9.125H2.5C2.705 9.125 2.875 9.295 2.875 9.5C2.875 9.705 2.705 9.875 2.5 9.875Z" fill="#0F2B23"/>
<path opacity="0.4" d="M1.5 6.375H1C0.795 6.375 0.625 6.205 0.625 6C0.625 5.795 0.795 5.625 1 5.625H1.5C1.705 5.625 1.875 5.795 1.875 6C1.875 6.205 1.705 6.375 1.5 6.375Z" fill="#0F2B23"/>
</g>
</svg>
