<svg width="16" height="16" viewBox="0 0 16 16" fill="none" xmlns="http://www.w3.org/2000/svg">
<path opacity="0.4" d="M7.99992 14.6667C11.6818 14.6667 14.6666 11.6819 14.6666 8.00004C14.6666 4.31814 11.6818 1.33337 7.99992 1.33337C4.31802 1.33337 1.33325 4.31814 1.33325 8.00004C1.33325 11.6819 4.31802 14.6667 7.99992 14.6667Z" fill="#193F34"/>
<path d="M10.4733 10.62C10.3867 10.62 10.3 10.6 10.22 10.5467L8.15334 9.31338C7.64001 9.00671 7.26001 8.33338 7.26001 7.74005V5.00671C7.26001 4.73338 7.48668 4.50671 7.76001 4.50671C8.03334 4.50671 8.26001 4.73338 8.26001 5.00671V7.74005C8.26001 7.98005 8.46001 8.33338 8.66668 8.45338L10.7333 9.68671C10.9733 9.82671 11.0467 10.1334 10.9067 10.3734C10.8067 10.5334 10.64 10.62 10.4733 10.62Z" fill="#193F34"/>
</svg>
