<svg width="140" height="140" viewBox="0 0 140 140" fill="none" xmlns="http://www.w3.org/2000/svg">
<path opacity="0.4" d="M123.025 125.417C123.025 127.05 121.741 128.333 120.108 128.333H19.8913C18.2579 128.333 16.9746 127.05 16.9746 125.417C16.9746 101.267 40.7746 81.6667 69.9996 81.6667C76.0079 81.6667 81.8413 82.4833 87.208 84.0583C83.7663 88.1416 81.6663 93.4501 81.6663 99.1667C81.6663 103.542 82.8912 107.683 85.0495 111.183C86.2162 113.167 87.7329 114.975 89.4829 116.492C93.5662 120.225 98.9913 122.5 105 122.5C111.533 122.5 117.425 119.817 121.625 115.5C122.558 118.65 123.025 121.975 123.025 125.417Z" fill="#193F34"/>
<path d="M122.325 83.5917C118.125 78.8084 111.884 75.8333 105 75.8333C98.467 75.8333 92.517 78.5167 88.2587 82.8917C84.1754 87.0917 81.667 92.8666 81.667 99.1666C81.667 103.542 82.8919 107.683 85.0502 111.183C86.2169 113.167 87.7336 114.975 89.4836 116.491C93.567 120.225 98.992 122.5 105 122.5C113.517 122.5 120.925 117.95 124.95 111.183C126.175 109.2 127.109 106.925 127.634 104.592C128.1 102.842 128.334 101.033 128.334 99.1666C128.334 93.2166 126.059 87.7334 122.325 83.5917ZM113.75 103.425H109.375V107.975C109.375 110.367 107.392 112.35 105 112.35C102.609 112.35 100.625 110.367 100.625 107.975V103.425H96.2503C93.8587 103.425 91.8753 101.441 91.8753 99.0498C91.8753 96.6581 93.8587 94.6748 96.2503 94.6748H100.625V90.5334C100.625 88.1417 102.609 86.1584 105 86.1584C107.392 86.1584 109.375 88.1417 109.375 90.5334V94.6748H113.75C116.142 94.6748 118.125 96.6581 118.125 99.0498C118.125 101.441 116.142 103.425 113.75 103.425Z" fill="#193F34"/>
<path d="M69.9997 70.0001C86.108 70.0001 99.1663 56.9417 99.1663 40.8334C99.1663 24.7251 86.108 11.6667 69.9997 11.6667C53.8914 11.6667 40.833 24.7251 40.833 40.8334C40.833 56.9417 53.8914 70.0001 69.9997 70.0001Z" fill="#193F34"/>
</svg>
